# xmcd CD database file
#
# Track frame offsets:
#	150
#	15826
#	35162
#	51373
#	74265
#	94420
#	108615
#	126025
#	143944
#	160725
#	182222
#	199624
#	221626
#	243869
#	266112
#	280229
#	297222
#	301366
#	318948
#	332892
#
# Disc length: 4765 seconds
#
# Revision: 0
# Processed by: cddbd v1.5PL3 Copyright (c) Steve Scherf et al.
# Submitted via: cdripper 1.0.3
#
DISCID=33129b14
DTITLE=Various Artist - Compilation
DYEAR=2004
DGENRE=Merengue
TTITLE0=NERDE900029 - Mission Impossible
TTITLE1=4 Non Blondes - What's up
TTITLE2=Ace of Base - All that She Wants
TTITLE3=Aerosmith - Angel
TTITLE4=Aerosmith - Dream On
TTITLE5=A - ha - Love is reason
TTITLE6=A - ha - Take On Me
TTITLE7=Alan Parsons - Brother up in heaven
TTITLE8=Alanis Morsiette - Hand in my pocket
TTITLE9=Alpha Ville - Big in japan
TTITLE10=Alphaville - Forever Young
TTITLE11=Annie Lennox - No More I Love Yous
TTITLE12=Annie Lennox - Why
TTITLE13=Annie Lennox - Why
TTITLE14=Beatles - Here comes the sun
TTITLE15=Backstreet Boys - Everybody (Backstreets back)
TTITLE16=Asereje - Asereje
TTITLE17=Beatles - Let it be
TTITLE18=Beatles - Imagine
TTITLE19=Beatles - Hey Jude
EXTD=YEAR: 2004
EXTT0=
EXTT1=
EXTT2=
EXTT3=
EXTT4=
EXTT5=
EXTT6=
EXTT7=
EXTT8=
EXTT9=
EXTT10=
EXTT11=
EXTT12=
EXTT13=
EXTT14=
EXTT15=
EXTT16=
EXTT17=
EXTT18=
EXTT19=
PLAYORDER=
